PathFileType	4	(X/Y/Z)	D:\TRACE\spot_10-12-23\spot_body_motion_3_3-v60.trc
DataRate	CameraRate	NumFrames	NumMarkers	Units	OrigDataRate	OrigDataStartFrame	OrigNumFrames
100.00	100.00	      28	9	mm	100.00	3501	      7000
Frame#	Time	front left toe			Front right toe			aft left toe			aft right toe			Arm			FL body			FR body			AL Body			AR Body			
		X1	Y1	Z1	X2	Y2	Z2	X3	Y3	Z3	X4	Y4	Z4	X5	Y5	Z5	X6	Y6	Z6	X7	Y7	Z7	X8	Y8	Z8	X9	Y9	Z9	

3501	35.000	-218.26764	26.13505	66.65664	296.02026	20.54860	104.52313	-166.90390	33.54800	555.25702	319.64639	27.49712	535.96838	78.06030	817.35150	-75.35591	-3.67931	553.58069	-53.70937	149.31805	560.48297	-58.93624	22.18356	563.24304	829.88373	173.08263	563.98566	827.72217	
3502	35.010	-218.01762	26.40656	66.25627	295.92310	20.65649	104.38543	-166.94337	33.62478	555.17401	319.56177	27.70344	535.73669	77.25894	817.17175	-76.34296	-4.27708	553.30316	-54.35351	148.98726	560.31952	-59.36157	21.73554	563.57928	829.23010	173.44241	564.90381	827.60657	
3503	35.020	-218.26785	25.77424	66.60989	295.92130	20.72871	104.25965	-166.97527	33.66318	555.13049	319.58704	27.82199	535.64606	76.75723	816.89514	-77.08315	-4.63085	552.87518	-54.85994	148.31360	560.21075	-60.21106	21.23869	564.02258	828.53766	172.38174	565.08850	826.22925	
3504	35.030	-217.96431	25.72594	66.42520	295.83017	20.75712	104.15462	-167.03014	33.79005	554.99524	319.48254	27.89210	535.44031	76.05034	816.60541	-78.07731	-5.15216	552.83002	-55.65733	147.21196	560.19226	-61.03859	20.84090	564.29761	827.75336	172.37659	565.36255	825.69543	
3505	35.040	-217.96516	25.75056	66.39574	295.67880	20.72558	104.09698	-167.09904	33.86413	554.92499	319.52667	28.07784	535.39960	75.72938	816.41193	-78.99200	-5.46119	552.63721	-56.34303	147.27629	559.79810	-61.49704	20.38711	564.83948	827.17444	171.54172	565.97235	824.55469	
3506	35.050	-218.19438	25.85609	66.43224	295.95779	20.80555	104.11025	-167.14099	33.93674	554.85986	319.56390	28.29672	535.43427	75.09300	816.28638	-79.78613	-5.84144	552.49542	-57.10183	146.76802	559.68829	-62.45857	19.79083	565.03400	826.14642	171.43541	566.68439	824.78967	
3507	35.060	-218.21815	25.87750	66.29025	295.96725	20.68037	104.09702	-167.17728	34.03098	554.80536	319.51917	28.44104	535.38123	74.48570	816.14935	-80.70730	-6.30076	552.28638	-58.02748	146.39984	559.51050	-63.28516	19.24467	565.49866	825.48535	170.58595	566.90649	823.44470	
3508	35.070	-218.12773	25.72940	66.23991	295.93481	20.73877	103.99968	-167.21001	34.03722	554.67188	319.49109	28.50842	535.32800	73.78546	815.99457	-81.61607	-6.73579	551.81396	-58.48030	146.17549	559.36731	-63.65138	18.22262	565.89679	824.62122	170.61728	567.68158	823.57007	
3509	35.080	-217.98190	25.66003	66.07552	295.79672	20.63455	103.92141	-167.31253	34.09436	554.52875	319.45267	28.44753	535.21973	73.25260	815.72491	-82.62637	-7.15261	551.65631	-59.38630	145.77139	559.36853	-64.52305	17.69427	566.19208	823.87549	170.39395	568.14594	822.94006	
3510	35.090	-218.16975	25.60148	66.07832	295.83905	20.74209	103.94558	-167.29759	34.10284	554.48462	319.43271	28.53033	535.15704	72.78243	815.58807	-83.31845	-7.62256	551.54663	-60.21103	145.31581	559.06000	-65.34923	17.54922	566.38916	823.49866	169.65656	568.64508	822.50128	
3511	35.100	-218.22749	25.69437	65.97038	295.78860	20.69346	103.82990	-167.34201	34.17354	554.40588	319.39246	28.59313	535.14417	72.31042	815.51385	-84.36987	-7.86266	551.36523	-60.67616	144.96812	559.09015	-65.78313	16.56007	566.88007	822.28326	168.24130	568.69257	821.06952	
3512	35.110	-218.24976	25.85345	65.87441	295.74396	20.66900	103.77256	-167.39586	34.22693	554.35303	319.36710	28.72726	535.14697	71.89120	815.41583	-85.07814	-8.46594	551.37939	-61.76183	144.55170	559.21527	-66.70303	16.12195	567.07904	821.95422	167.61940	569.26892	820.19269	
3513	35.120	-218.23686	25.77590	65.82080	295.79013	20.75242	103.85012	-167.46381	34.17374	554.33301	319.32748	28.73620	535.12677	71.32082	815.25085	-85.97145	-8.90662	551.33582	-62.36304	143.98389	558.92291	-67.64445	15.49510	567.34271	821.03967	167.08121	569.35388	819.39410	
3514	35.130	-218.27303	25.61337	65.84709	295.70694	20.67245	103.78292	-167.52872	34.09031	554.21887	319.33395	28.65178	535.05786	70.66437	815.21191	-87.01490	-9.36723	551.13153	-63.19452	143.47763	558.87579	-68.29325	14.82268	567.53333	820.28064	165.82730	569.30078	817.95850	
3515	35.140	-218.30602	25.59899	65.84962	295.65088	20.74448	103.78525	-167.52779	33.96767	554.21832	319.27106	28.61012	535.04468	70.03944	815.14032	-87.71305	-9.82237	550.98584	-64.05724	142.87138	558.70770	-69.17300	14.24466	567.71271	819.39606	165.59422	569.70892	817.98773	
3516	35.150	-218.34473	25.59420	65.80885	295.66092	20.74190	103.71311	-167.51897	33.99303	554.20422	319.28271	28.59244	534.94476	69.56841	815.08472	-88.75595	-10.46766	550.98822	-64.76497	142.33989	558.71204	-69.70537	13.60859	567.86304	818.77905	164.42708	569.70795	816.29584	
3517	35.160	-218.44435	25.59598	65.81942	295.59448	20.74806	103.64620	-167.55057	34.01231	554.15057	319.27808	28.67343	535.01685	69.06322	815.10583	-89.46229	-11.06428	551.09320	-65.74074	141.81531	558.77515	-70.64034	12.98730	568.07855	817.86725	164.60814	570.11017	816.29620	
3518	35.170	-218.52855	25.59900	65.81924	295.60245	20.80124	103.57862	-167.65199	33.95309	554.11682	319.23712	28.69087	534.96344	68.36256	815.04803	-90.40047	-11.75231	551.04565	-66.55959	141.09238	558.78613	-71.59587	12.24403	568.20831	816.96014	163.12646	569.87628	814.64728	
3519	35.180	-218.61221	25.52767	65.80083	295.59888	20.77024	103.61498	-167.73199	33.73097	554.10150	319.23325	28.62607	534.96539	68.02849	815.02740	-91.20950	-12.48553	551.15826	-67.47111	140.36703	558.65985	-72.20846	11.63830	568.42542	815.88763	162.12665	569.59363	813.63922	
3520	35.190	-218.65102	25.41752	65.76167	295.58051	20.78582	103.53523	-167.76814	33.49104	554.06970	319.14822	28.44962	534.82874	67.41106	814.87531	-92.08591	-13.16420	550.95667	-68.21071	139.60707	558.66205	-73.50905	10.84502	568.32672	815.03510	161.58994	569.67310	812.79224	
3521	35.200	-218.68126	25.35658	65.76661	295.53220	20.84564	103.54598	-167.76408	33.28848	554.08051	319.08252	28.30763	534.78815	66.86382	814.85730	-93.11636	-13.98150	550.92694	-69.19859	138.81218	558.65283	-74.36896	10.00872	568.52924	814.26428	161.17363	569.68158	812.01031	
3522	35.210	-218.70309	25.36335	65.76441	295.76736	20.97650	103.57983	-167.87572	32.98235	554.06989	319.06937	28.15949	534.86108	66.19338	814.84473	-94.00547	-14.65073	550.92285	-70.06029	138.14792	558.40924	-75.34438	9.60186	568.21228	813.15515	160.60939	569.62183	811.21057	
3523	35.220	-218.77292	25.37471	65.80843	295.75204	21.02995	103.54364	-167.98093	32.82768	554.05945	319.01550	28.10180	534.87030	65.63226	814.89337	-94.93028	-15.56187	551.06464	-71.09518	137.58734	558.23615	-76.17538	9.05114	568.29700	812.22864	159.47412	569.32977	809.77820	
3524	35.230	-218.85632	25.31175	65.80413	295.70465	21.00457	103.53583	-167.94810	32.51322	554.16937	319.00620	27.90674	534.94824	64.87443	814.81433	-95.88061	-16.50688	551.04980	-72.05683	136.31950	558.34021	-77.19221	8.33582	568.24255	811.41479	159.21872	569.26843	809.31348	
3525	35.240	-218.87195	25.21074	65.86306	295.67047	21.01175	103.58556	-167.90543	32.24265	554.34076	319.11362	27.62283	534.99420	64.29765	814.69073	-96.86337	-17.07232	551.07367	-72.95716	135.63715	558.22418	-78.30252	7.28547	568.05872	810.18420	158.41602	569.07855	808.15216	
3526	35.250	-218.88287	25.05456	65.89105	295.59280	20.97453	103.48849	-167.90903	32.04912	554.46094	319.12808	27.37110	535.03009	63.43690	814.67242	-97.97657	-18.04711	550.98688	-74.16685	135.00224	557.92896	-78.83842	6.80574	567.96625	809.28387	157.72119	568.82977	807.17645	
3527	35.260	-218.90279	24.98771	65.87990	295.53098	21.03684	103.44402	-167.93333	31.85392	554.40930	319.08469	27.20575	535.01044	62.68448	814.48505	-99.00777	-18.90399	550.89087	-75.11112	133.80731	557.77625	-80.44477	6.22155	567.81824	808.49170	156.79414	568.75037	806.11963	
3528	35.270	-218.94495	24.98884	65.95094	295.52930	21.01851	103.45477	-167.98929	31.57526	554.42267	319.02274	27.05726	535.04761	61.99778	814.33472	-100.24266	-19.81089	550.89294	-76.24232	132.87814	557.56934	-81.18210	5.26231	567.75891	807.18079	156.77026	568.85968	805.50757	
